<svg xmlns="http://www.w3.org/2000/svg" width="1454.3" height="549.2" baseProfile="basic">
  <g fill-rule="evenodd" clip-rule="evenodd">
    <path fill="#7F7F7F" d="M567.2 304.5c0-131.2-104.8-237.6-234-237.6-129.3 0-234 106.4-234 237.6s104.8 237.6 234 237.6 234-106.4 234-237.6zm3.6 0c0-133.2-106.4-241.2-237.6-241.2S95.6 171.3 95.6 304.5 202 545.7 333.2 545.7s237.6-108 237.6-241.2z" opacity=".5"/>
    <path fill="#7F7F7F" d="M563.4 306.5c0-127.2-103.1-230.3-230.3-230.3-127.2 0-230.3 103.1-230.3 230.3 0 127.2 103.1 230.3 230.3 230.3 127.2-.1 230.3-103.2 230.3-230.3zm3.5 0c0-129.1-104.7-233.8-233.8-233.8C204 72.7 99.4 177.4 99.4 306.5c0 129.1 104.7 233.8 233.8 233.8 129-.1 233.7-104.7 233.7-233.8z" opacity=".5"/>
    <path fill="#7F7F7F" d="M562.4 302.5c0-126.3-102.4-228.8-228.8-228.8S104.8 176.1 104.8 302.5s102.4 228.8 228.8 228.8c126.4-.1 228.8-102.5 228.8-228.8zm3.5 0c0-128.3-104-232.3-232.3-232.3s-232.3 104-232.3 232.3 104 232.3 232.3 232.3c128.3-.1 232.3-104.1 232.3-232.3z" opacity=".5"/>
    <path fill="#F57E20" d="M549.6 449.5L535 467.7h919.3v-18.2H549.6zM90.6 467.7l-4.5-18.2H20.7v18.2h69.9z"/>
    <path fill="#6A6C74" d="M599.6 189.4h57.3v19h-35.5v18.5h35.5v18.7h-35.5v46h-21.8V189.4zM684.8 189.4h22.1v66.1c0 5.7.6 9.7 1.7 12.1 1.1 2.4 3 4.2 5.6 5.7 2.6 1.4 5.7 2.1 9.4 2.1 3.9 0 7.2-.8 10-2.4 2.8-1.6 4.7-3.6 5.8-6 1.1-2.4 1.6-7.1 1.6-13.9v-63.7h22v60.9c0 10.3-.7 17.4-2 21.4s-3.8 7.8-7.5 11.5-7.9 6.5-12.8 8.2c-4.8 1.8-10.4 2.7-16.8 2.7-8.4 0-15.7-1.7-21.9-5.1-6.2-3.4-10.6-7.7-13.3-12.8-2.7-5.1-4-13.8-4-26v-60.8h.1zM799.1 189.4h23.3c12.8 0 21.8 1 27.3 3 5.4 2 9.8 5.4 13.1 10s4.9 10.2 4.9 16.6c0 6.7-1.8 12.3-5.5 16.9-3.6 4.5-9.1 7.9-16.4 10.2l27.4 45.4h-24l-26-43.3h-2v43.3h-22V189.4h-.1zm22 39.9h6.9c7 0 11.8-.8 14.4-2.4 2.6-1.6 4-4.3 4-8.1 0-2.2-.7-4.2-2-5.8-1.3-1.6-3.1-2.8-5.2-3.6-2.2-.7-6.2-1.1-12.1-1.1h-6v21zM900.1 189.4h21.1l49.4 67.3v-67.3h22v102.2h-21.2l-49.3-67v67h-22V189.4zM1026.5 189.4h21.8v102.2h-21.8V189.4zM1070.8 189.4h63.8v19.2h-21v83h-22.3v-83h-20.5v-19.2zM1158.1 189.4h22.1v66.1c0 5.7.6 9.7 1.7 12.1 1.1 2.4 3 4.2 5.6 5.7 2.6 1.4 5.7 2.1 9.4 2.1 3.9 0 7.2-.8 10-2.4s4.7-3.6 5.8-6c1.1-2.4 1.6-7.1 1.6-13.9v-63.7h22.1v60.9c0 10.3-.7 17.4-2 21.4s-3.8 7.8-7.5 11.5-7.9 6.5-12.8 8.2c-4.8 1.8-10.4 2.7-16.8 2.7-8.4 0-15.7-1.7-21.9-5.1-6.2-3.4-10.6-7.7-13.3-12.8-2.7-5.1-4-13.8-4-26v-60.8zM1272.4 189.4h23.3c12.8 0 21.8 1 27.3 3s9.8 5.4 13.1 10c3.3 4.7 4.9 10.2 4.9 16.6 0 6.7-1.8 12.3-5.5 16.9-3.6 4.5-9.1 7.9-16.5 10.2l27.4 45.4h-24l-26-43.3h-2v43.3h-22V189.4zm22 39.9h6.9c7 0 11.8-.8 14.4-2.4 2.6-1.6 4-4.3 4-8.1 0-2.2-.7-4.2-2-5.8-1.3-1.6-3.1-2.8-5.2-3.6-2.2-.7-6.2-1.1-12.1-1.1h-6v21zM1373.4 189.4h63v19h-41.2v18.5h41.2v18.7h-41.2v26.9h41.2v19.1h-63V189.4zM663.2 378.6l5.6 5.3c-3.6 2.8-7.1 5.3-10.3 7.4 2.3 1.8 5.2 4.4 8.9 7.6 2.9 2.5 5.4 4.9 7.4 7h-11.6l-11.1-10.1c-6.9 5-12.6 8.2-16.9 9.7-4.3 1.5-8.9 2.3-13.8 2.3-6.4 0-11.6-1.6-15.5-4.9-3.9-3.3-5.8-7.3-5.8-12.2 0-3.7 1.3-7.4 3.9-11.1 2.6-3.7 8-8.4 16.1-14-4.6-4.9-7.5-8.5-8.8-10.8-1.3-2.3-2-4.5-2-6.6 0-3.7 1.6-6.7 4.8-9.1 3.7-2.8 8.3-4.2 13.8-4.2 3.5 0 6.6.6 9.5 1.9s5.1 2.9 6.6 5 2.3 4.3 2.3 6.6c0 2.5-1 5.1-3 7.9-2 2.8-5.8 6.4-11.6 10.7l12.6 11.7 8.3 7.4c4.5-2.9 8-5.4 10.6-7.5zm-36.6-17.2c4-2.8 7.1-5.5 9.1-8.2 1.4-1.9 2.2-3.6 2.2-5.1 0-1.7-.9-3.2-2.8-4.4-1.9-1.2-4.4-1.9-7.5-1.9-3 0-5.4.6-7.2 1.9s-2.8 2.8-2.8 4.5c0 1.3.4 2.6 1.1 3.8 1.9 2.9 4.5 6 7.9 9.4zm-1 9.7c-7.1 4.7-11.7 8.5-13.9 11.3-2.2 2.8-3.3 5.4-3.3 7.8 0 2.8 1.3 5.3 4 7.5s6 3.2 9.9 3.2c3 0 5.8-.5 8.7-1.6 4.5-1.7 9.6-4.6 15.4-8.7l-13.1-12c-2.4-2.2-4.9-4.6-7.7-7.5zM776.7 332.1h16.4c6.6 0 11.7.7 15.2 2.1 3.6 1.4 6.4 3.5 8.4 6.4 2.1 2.9 3.1 6.1 3.1 9.6 0 3.3-.9 6.3-2.7 9-1.8 2.7-4.5 4.9-8 6.5 4.3 1.3 7.7 2.8 10 4.6s4.2 3.9 5.5 6.4 1.9 5.2 1.9 8.1c0 5.9-2.4 10.9-7.3 15s-11.5 6.1-19.7 6.1h-22.9v-73.8h.1zm8.2 7.2V363h4.8c5.8 0 10.1-.5 12.8-1.4 2.7-1 4.9-2.5 6.5-4.5 1.6-2.1 2.4-4.3 2.4-6.8 0-3.4-1.3-6-4-8-2.7-1.9-6.9-2.9-12.8-2.9h-9.7v-.1zm0 31.1v28.3h10.3c6.1 0 10.6-.5 13.4-1.6 2.8-1.1 5.1-2.7 6.8-4.9 1.7-2.2 2.6-4.7 2.6-7.3 0-3.3-1.2-6.1-3.6-8.6-2.4-2.4-5.8-4.1-10-5-2.8-.6-7.8-.9-14.8-.9h-4.7zM871.4 332.1h47.8v7.2h-39.5v23.2h39.1v7.2h-39.1v29h39.1v7.2h-47.4v-73.8zM961.8 405.9v-73.8h17.3c12.5 0 21.5.9 27.1 2.7 8.1 2.5 14.4 6.9 19 13s6.8 13.6 6.8 22.1c0 7.4-1.8 13.9-5.4 19.5-3.6 5.6-8.3 9.8-14.1 12.4-5.8 2.7-13.8 4-24.2 4h-26.5v.1zm8-7h9.6c11.5 0 19.5-.6 24-1.9 6.3-1.8 11.2-5.1 14.8-9.7 3.6-4.7 5.4-10.4 5.4-17.2 0-7.1-1.9-13.2-5.8-18.2s-9.3-8.5-16.3-10.4c-5.2-1.4-13.8-2.1-25.8-2.1h-5.9v59.5zM1076.4 405.9v-73.8h17.3c12.5 0 21.5.9 27.1 2.7 8.1 2.5 14.4 6.9 19 13 4.6 6.2 6.8 13.6 6.8 22.1 0 7.4-1.8 13.9-5.4 19.5-3.6 5.6-8.3 9.8-14.1 12.4-5.8 2.7-13.8 4-24.2 4h-26.5v.1zm8-7h9.6c11.5 0 19.5-.6 24-1.9 6.3-1.8 11.2-5.1 14.8-9.7s5.4-10.4 5.4-17.2c0-7.1-1.9-13.2-5.8-18.2s-9.3-8.5-16.3-10.4c-5.2-1.4-13.8-2.1-25.8-2.1h-5.9v59.5zM1189.7 332.1h8.4v73.8h-8.4v-73.8zM1245.4 405.9v-73.8h1.9l55.4 56.6v-56.6h8.3v73.8h-1.9L1254 350v55.9h-8.6zM1439.9 344.5l-6.5 5.4c-4.6-4-9.7-7.1-15.3-9.2-5.5-2.1-10.9-3.1-16.2-3.1-6.5 0-12.8 1.4-18.7 4.3-5.9 2.8-10.5 6.7-13.7 11.6-3.3 4.9-4.9 10-4.9 15.4 0 5.5 1.7 10.8 5 15.8 3.4 5 8 8.9 13.9 11.8 5.9 2.9 12.4 4.3 19.5 4.3 8.6 0 15.8-2.1 21.8-6.4 5.9-4.3 9.4-9.8 10.5-16.7h-26.6v-7.1h35.9c-.1 11.4-3.9 20.5-11.5 27.2-7.6 6.7-17.7 10.1-30.4 10.1-15.4 0-27.6-4.6-36.6-13.9-6.9-7.2-10.4-15.4-10.4-24.8 0-7 2-13.5 6-19.5s9.4-10.7 16.3-14.1c6.9-3.4 14.7-5.1 23.5-5.1 7.1 0 13.7 1.1 20 3.4 6.3 2 12.4 5.6 18.4 10.6z"/>
    <path fill="#BDC2C6" d="M549.4 303.4c0-118.1-95.8-213.9-213.9-213.9-118.1 0-213.9 95.8-213.9 213.9 0 118.1 95.8 213.9 213.9 213.9 118.1 0 213.9-95.8 213.9-213.9z"/>
    <path fill="#FFF" d="M332.4 391.8h-37.1L283.7 425h37.1l11.6-33.2zM279.8 255.9l-59.5 169.3h57.3l59.5-169.3 2.1-5.7 16.2-46.3h-57.3l-16.3 46.3-2 5.7zM226.7 391.7h-37.1L178 424.9h37.1l11.6-33.2zM419.3 337.6c14.2.1 28.3-1 42.3-3.5l.4-.1c15.8-3.7 30.6-11.1 43.2-21.4 20.5-16.9 37-49.4 29.7-76.9-6.1-23-29.1-29.6-49.7-30.8-19.1-1.2-54.1-1-76.5-1l-77.8 221.3h57.6l30.8-87.6zm52.7-79.8c1.7.3 3.3.9 4.7 1.7.9.6 1.6 1.5 1.9 2.6 1.7 9-8.9 18.9-16 20.8-7.9 2.1-16.6 1.9-24.7 1.9l9.9-28.3 18.1.4 6.1.9z"/>
    <path fill="#FFF" d="M441 391.7h-37.1l-11.7 33.2h37.1l11.7-33.2z"/>
    <path fill="#F57E20" d="M289.8 248.8h42.3l13.3-37.8h-42.3l-13.3 37.8zM329.2 257.3h-42.3l-56.6 160.9h42.3l56.6-160.9zM413.7 211l-72.8 207.1h42.6l30.8-87.7c21.7 0 37-1.1 46-3.2 15.3-3.8 28.7-10.4 40.3-20 11.5-9.6 19.8-21.6 24.9-36 4.6-13 5.4-24.2 2.4-33.6s-9.1-16.1-18.4-20.3-26.2-6.3-50.7-6.3h-45.1zm14.1 81l14.9-42.5h12c13.2 0 21.7 1.4 25.6 4.1 5.4 3.7 6.7 9.5 3.9 17.5-1.6 4.6-4.2 8.5-7.7 11.8-3.5 3.2-7.6 5.6-12.3 7-4.7 1.4-12.3 2.1-23 2.1h-13.4z"/>
    <path fill="#6A6C74" d="M216.7 398.8h-22l-6.7 19h22l6.7-19zM322.4 398.9h-22l-6.7 19h22l6.7-19zM431 398.8h-22.1l-6.7 19.1h22.1l6.7-19.1z"/>
    <path fill="#FFF" d="M344.1 13.8c-5.4 4.6-10.8 9.4-16 14.2-16.7 15.4-31.3 31.3-45.6 49.3-5 6.2-9.9 12.5-14.6 19-9.8 13.2-19.1 26.4-28.4 39.9-33.7 49.3-63.6 100.1-89.8 153.9-7.3 15-14.3 30.2-20.9 45.6l-17.7-52c-1.9-6.5-3.9-12.9-6-19.3-2.4-7.4-5-14.8-7.9-22.1-1.4-3.7-3-7.3-4.6-10.9-1.9-4.2-3.9-8.4-6.1-12.4-1.1-2-2.3-4-3.5-5.9-2.2-3.4-4.7-6.7-7.6-9.6-1.2-1.2-2.4-2.2-3.7-3.2-1.5-1.1-3-2-4.7-2.8-2.2-.9-4.6-1.5-6.9-1.5-3.3-.1-6.5.4-9.7 1.2-3.3.9-6.4 2.2-9.4 3.8-2.8 1.5-5.5 3.3-8.1 5.2-2.7 2-5.2 4.2-7.6 6.5-2.2 2.1-4.3 4.3-6.3 6.5-2.2 2.4-4.3 4.9-6.3 7.5-4.1 5.2-7.9 10.5-11.5 16-2.1 3.2-1.2 7.4 2 9.5.2.1.3.2.5.3 2.8 1.5 5.4 3.3 7.7 5.4 2.7 2.4 5.2 4.9 7.4 7.7 2.3 2.8 4.4 5.8 6.4 8.9 2.1 3.4 4.1 6.9 5.9 10.5 1.3 2.6 2.5 5.2 3.6 7.9 1.2 2.8 2.4 5.6 3.5 8.4 2.2 5.5 4.4 11 6.5 16.5 3.9 10.3 7.7 20.6 11.4 31 3.2 8.9 6.2 17.8 9.2 26.8 3.3 10.1 6.8 20.9 9.7 31.3l7.2 25.7c2.4 8.9 4.7 17.9 7 26.8 1.3 5 2.5 10.1 3.7 15.2 1.5 6.3 2.7 11.9 3.8 18 .7 3.7 4.2 6.2 7.9 5.5 1.7-.3 3.3-1.3 4.3-2.7 2.1-2.8 4.8-6.1 7.2-8.9 2.7-3.1 5.5-6.1 8.3-9.1 5.6-6 11.4-11.9 17.2-17.6l19.8-19.3c.8-.8 1.4-1.7 1.7-2.8 6.4-19.2 13.3-38.3 20.7-57.2 8.1-20.6 16.7-41.1 25.7-61.3 9-20 18.4-39.9 28.1-59.6 10.7-21.5 21.8-42.9 33.3-64 7-12.9 14.1-25.8 21.2-38.7 3.8-6.9 7.7-13.8 11.6-20.7 4.4-7.8 8.9-15.5 13.4-23.1 3.9-6.5 7.9-13 12-19.5 4.6-7.2 9.3-14.2 14.3-21.2 4.9-6.9 10-13.6 15.3-20.2 5.9-7.2 12-14.3 18.3-21.1 1.9-2 2.4-5 1.2-7.5L369.3 4c-1.6-3.4-5.7-4.9-9.1-3.3-.5.2-1 .5-1.4.9-5 4-9.9 8-14.7 12.2z"/>
    <path fill="#F57E20" d="M372.3 26.6l-9.2-19.7C318 43.5 292.6 70.6 245 140c-47.5 69.3-86.5 140.9-117.1 214.8l-23.6-69.1c-16.2-55-31-82.6-44.6-82.9-15.9-.3-33.6 14.2-52.9 43.6 11.3 6 21.4 17.8 30.3 35.5 9 17.7 34.2 86.4 44.4 123.1l7.2 25.7c7.6 28.1 12.4 48.3 14.6 60.6 5.9-8.1 17-20.2 33.5-36.5l19.8-19.3C181.7 360 217.8 279 265 192.3c47.1-86.4 69-124.4 107.3-165.7z"/>
  </g>
</svg>
